<svg xmlns:dc="http://purl.org/dc/elements/1.1/" xmlns:cc="http://creativecommons.org/ns#" xmlns:rdf="http://www.w3.org/1999/02/22-rdf-syntax-ns#" xmlns:svg="http://www.w3.org/2000/svg" xmlns="http://www.w3.org/2000/svg" viewBox="300 267 250 60" id="svg26" height="114" width="430" version="1.1">
  <metadata id="metadata32">
    <rdf:RDF>
      <cc:Work rdf:about="">
        <dc:format>
          
          image/svg+xml
        
        </dc:format>
        <dc:type rdf:resource="http://purl.org/dc/dcmitype/StillImage"/>
      </cc:Work>
    </rdf:RDF>
  </metadata>
  <defs id="defs30"/>
  <path id="path4" d="m788.3575 596.0265v-70.8446h1v70.8446z" style="fill-rule:evenodd;fill:#dc632a"/>
  <g id="Layer1000">
    <path id="path6" d="m422.657 326.435h-1.4272v-1.4644h1.4272zm3.9705 0h-1.4272v-1.4644h1.4272zm3.9705 0h-1.4273v-1.4644h1.4273zm2.0781-3.9926c0-1.1603 0.3143-2.1153 0.9425-2.8673 0.6284-0.7517 1.4819-1.1279 2.558-1.1279 1.0885 0 1.9468 0.3762 2.5775 1.1257 0.631 0.7469 0.9451 1.7044 0.9451 2.8695v0.1581c0 1.1702-0.3141 2.1274-0.9425 2.8698-0.6285 0.7444-1.4817 1.1155-2.5654 1.118-1.0808-0.002-1.9395-0.3736-2.5676-1.1205-0.631-0.7472-0.9476-1.7019-0.9476-2.8673zm1.4275 0.1581c0 0.8314 0.1755 1.5166 0.527 2.0583 0.3486 0.5417 0.8705 0.8115 1.5607 0.8115 0.6829 0 1.1974-0.2698 1.5511-0.8115 0.3538-0.5417 0.5295-1.2269 0.5295-2.0583v-0.1581c0-0.8212-0.1783-1.5067-0.532-2.0509-0.3561-0.5465-0.8756-0.8186-1.5633-0.8186-0.6803 0-1.1974 0.2721-1.546 0.8186-0.3515 0.5442-0.527 1.2297-0.527 2.0509zm14.0386 0.2104c0 1.1304-0.2722 2.0435-0.8164 2.736-0.5417 0.6928-1.2912 1.0389-2.2411 1.0414-0.5221-0.002-0.9748-0.1037-1.3606-0.3092-0.3835-0.2053-0.7002-0.5097-0.9524-0.9102l-0.2325 1.0661h-1.0933v-11.3052h1.4272v4.3912c0.2475-0.349 0.5517-0.6137 0.9179-0.7968 0.3634-0.1829 0.7914-0.277 1.2787-0.277 0.9649 0 1.7195 0.3884 2.2612 1.1602 0.5417 0.7742 0.8113 1.791 0.8113 3.0527zm-1.4273-0.1508c0-0.9006-0.1658-1.6328-0.4972-2.2017-0.3316-0.5664-0.8336-0.851-1.5114-0.851-0.438 0-0.809 0.1089-1.1109 0.324-0.3019 0.2152-0.5443 0.5023-0.7223 0.866v3.3988c0.1832 0.386 0.4255 0.6876 0.7223 0.9053 0.2968 0.2177 0.6729 0.3266 1.1256 0.3266 0.673 0 1.1724-0.2398 1.5016-0.7175 0.3265-0.4799 0.4923-1.1106 0.4923-1.8997zm4.7101 3.7749h-1.4273v-7.8418h1.4273zm0-9.8482h-1.4273v-1.457h1.4273zm5.4422 10.0015c-1.1256-0.002-2.0038-0.3611-2.632-1.0811-0.6309-0.7197-0.9476-1.6671-0.9476-2.8398v-0.3191c0-1.1254 0.3266-2.058 0.9749-2.7953 0.6505-0.7373 1.4445-1.1058 2.3822-1.1058 1.0463 0 1.8329 0.3266 2.3573 0.9797 0.5244 0.6531 0.7869 1.5188 0.7869 2.6025v0.7517h-5.0145l-0.0221 0.0371c0 0.7869 0.1732 1.4276 0.5218 1.9174 0.349 0.4898 0.8782 0.7347 1.5931 0.7347 0.485 0 0.9079-0.0669 1.2739-0.2055 0.3637-0.1383 0.678-0.3288 0.9377-0.5689l0.559 0.9278c-0.2821 0.2696-0.6506 0.4994-1.1106 0.6851-0.4578 0.1854-1.0117 0.277-1.66 0.2795zm-0.2225-7.0154c-0.4998 0-0.9105 0.1904-1.237 0.5737-0.3266 0.3861-0.5245 0.8759-0.5987 1.4768l0.015 0.0346h3.5374v-0.1162c0-0.5689-0.1409-1.0389-0.4204-1.4125-0.2798-0.3711-0.7127-0.5564-1.2963-0.5564zm6.7334-2.8721v1.8924h1.4842v1.0587h-1.4842v4.762c0 0.3662 0.0743 0.6258 0.2276 0.7744 0.1508 0.1508 0.3538 0.2251 0.6061 0.2251 0.0816 0 0.1732-0.01 0.2747-0.0324 0.1014-0.0221 0.1853-0.0445 0.2522-0.0691l0.1979 0.9771c-0.1063 0.089-0.2648 0.1584-0.4725 0.2151-0.2078 0.0545-0.413 0.0817-0.616 0.0842-0.5788-0.002-1.0415-0.1757-1.3827-0.5269-0.3439-0.3487-0.5145-0.9003-0.5145-1.6475v-4.762h-1.247v-1.0587h1.247v-1.8924zm4.2897 1.8924 0.1012 1.1676c0.2599-0.4156 0.5865-0.7396 0.9822-0.9672 0.3934-0.2302 0.841-0.3464 1.3433-0.3464 0.8459 0 1.499 0.2497 1.9641 0.7447 0.4627 0.4946 0.6951 1.2591 0.6951 2.2932v4.9499h-1.4272v-4.9204c0-0.6925-0.1361-1.1823-0.4082-1.4718-0.2747-0.2894-0.6903-0.4354-1.2518-0.4354-0.4405 0-0.8116 0.089-1.1183 0.2648-0.3092 0.1755-0.5516 0.4255-0.7296 0.7421v5.8207h-1.4273v-7.8418zm8.7026 7.8418h-1.4272v-7.8418h1.4272zm0-9.8482h-1.4272v-1.457h1.4272zm5.3136 8.8835c0.4379 0 0.8237-0.146 1.1528-0.4379 0.3266-0.292 0.4924-0.6506 0.4924-1.0761h1.2886l0.0224 0.0446c0.0199 0.6752-0.2696 1.2764-0.8708 1.8008-0.5987 0.5244-1.2937 0.7841-2.0854 0.7866-1.1033-0.002-1.9517-0.3759-2.5529-1.1256-0.5987-0.747-0.898-1.6796-0.898-2.7953v-0.3067c0-1.1058 0.3019-2.0336 0.9031-2.7856 0.6009-0.7517 1.4496-1.1279 2.5478-1.1279 0.8733 0 1.5908 0.2721 2.1472 0.8138 0.5593 0.5395 0.8289 1.2048 0.809 1.9914l-0.0147 0.0445h-1.2963c0-0.4799-0.1559-0.8856-0.4677-1.222-0.3115-0.3365-0.705-0.502-1.1775-0.502-0.6999 0-1.2121 0.2695-1.5336 0.8138-0.3217 0.5442-0.4824 1.2022-0.4824 1.974v0.3067c0 0.7866 0.1584 1.4497 0.4751 1.9914 0.3166 0.5417 0.8311 0.8115 1.5409 0.8115zm9.4719 0.9647c-0.0467-0.2376-0.0839-0.4454-0.1111-0.6259-0.0272-0.1831-0.0422-0.3637-0.047-0.5491-0.2673 0.3784-0.6135 0.6925-1.0415 0.9473-0.4255 0.2523-0.8881 0.3785-1.3805 0.381-0.8163-0.002-1.4371-0.2103-1.8652-0.6284-0.4277-0.4179-0.6406-0.9944-0.6406-1.7292 0-0.7469 0.3019-1.3331 0.908-1.7563 0.606-0.4229 1.4297-0.6333 2.4686-0.6333h1.5512v-0.7767c0-0.4575-0.1412-0.8212-0.4207-1.0907-0.2795-0.2673-0.6778-0.4008-1.1897-0.4008-0.4626 0-0.8388 0.1136-1.1231 0.3463-0.2846 0.2325-0.428 0.5094-0.428 0.8334l-1.3533 0.0151-0.0147-0.0446c-0.0346-0.5689 0.2324-1.091 0.7991-1.5635 0.5689-0.4748 1.3011-0.7124 2.2016-0.7124 0.8881 0 1.603 0.2276 2.1447 0.6778 0.5417 0.4527 0.8113 1.1032 0.8113 1.9542v3.7752c0 0.2817 0.015 0.5516 0.0422 0.8112 0.0295 0.2622 0.0839 0.5171 0.1608 0.7694zm-2.3697-1.044c0.517 0 0.9844-0.1336 1.4-0.3983 0.4158-0.2648 0.6854-0.5715 0.8116-0.9128v-1.2764h-1.603c-0.574 0-1.0341 0.146-1.3805 0.4354-0.3438 0.2894-0.517 0.6307-0.517 1.0216 0 0.3489 0.1088 0.6233 0.3265 0.8263 0.2154 0.2027 0.5369 0.3042 0.9624 0.3042zm12.5172 0.0793c0.438 0 0.8237-0.146 1.1529-0.4379 0.3265-0.292 0.4923-0.6506 0.4923-1.0761h1.2887l0.0224 0.0446c0.0198 0.6752-0.2696 1.2764-0.8708 1.8008-0.5987 0.5244-1.2938 0.7841-2.0855 0.7866-1.1032-0.002-1.9517-0.3759-2.5529-1.1256-0.5987-0.747-0.898-1.6796-0.898-2.7953v-0.3067c0-1.1058 0.3019-2.0336 0.9031-2.7856 0.601-0.7517 1.4497-1.1279 2.5478-1.1279 0.8734 0 1.5908 0.2721 2.1472 0.8138 0.5593 0.5395 0.8289 1.2048 0.8091 1.9914l-0.0148 0.0445h-1.2963c0-0.4799-0.1559-0.8856-0.4677-1.222-0.3115-0.3365-0.705-0.502-1.1775-0.502-0.6999 0-1.2121 0.2695-1.5335 0.8138-0.3218 0.5442-0.4825 1.2022-0.4825 1.974v0.3067c0 0.7866 0.1585 1.4497 0.4751 1.9914 0.3166 0.5417 0.8311 0.8115 1.5409 0.8115zm6.1968 0.9647h-1.4272v-7.8418h1.4272zm0-9.8482h-1.4272v-1.457h1.4272zm5.4423 10.0015c-1.1257-0.002-2.0039-0.3611-2.632-1.0811-0.631-0.7197-0.9476-1.6671-0.9476-2.8398v-0.3191c0-1.1254 0.3265-2.058 0.9748-2.7953 0.6506-0.7373 1.4445-1.1058 2.3822-1.1058 1.0463 0 1.8329 0.3266 2.3573 0.9797 0.5244 0.6531 0.7869 1.5188 0.7869 2.6025v0.7517h-5.0145l-0.0221 0.0371c0 0.7869 0.1732 1.4276 0.5219 1.9174 0.3489 0.4898 0.8782 0.7347 1.5931 0.7347 0.485 0 0.9079-0.0669 1.2738-0.2055 0.3637-0.1383 0.6781-0.3288 0.9377-0.5689l0.559 0.9278c-0.282 0.2696-0.6505 0.4994-1.1106 0.6851-0.4578 0.1854-1.0117 0.277-1.6599 0.2795zm-0.2226-7.0154c-0.4997 0-0.9105 0.1904-1.237 0.5737-0.3266 0.3861-0.5244 0.8759-0.5987 1.4768l0.015 0.0346h3.5374v-0.1162c0-0.5689-0.1409-1.0389-0.4204-1.4125-0.2798-0.3711-0.7126-0.5564-1.2963-0.5564zm11.4288 3.238c0 1.1304-0.2699 2.0435-0.8116 2.736-0.5417 0.6928-1.2886 1.0389-2.2385 1.0414-0.485-0.002-0.908-0.0816-1.2716-0.2449-0.3663-0.1607-0.6753-0.4031-0.9326-0.7274v3.8345h-1.4273v-10.8573h1.0933l0.2251 1.0142c0.2574-0.3761 0.5763-0.663 0.9573-0.8608 0.3809-0.2005 0.8263-0.2994 1.3334-0.2994 0.9723 0 1.7266 0.3858 2.2635 1.1577 0.5391 0.7693 0.809 1.7886 0.809 3.0552zm-1.4276-0.1508c0-0.8907-0.1754-1.6203-0.5244-2.1943-0.3512-0.5715-0.8657-0.8584-1.5485-0.8584-0.4105 0-0.762 0.0941-1.0514 0.2795-0.2894 0.1857-0.5244 0.4402-0.7024 0.7645v3.7897c0.178 0.324 0.413 0.5765 0.7024 0.7571 0.2894 0.1828 0.6457 0.2721 1.0664 0.2721 0.6752 0 1.1871-0.2474 1.5361-0.7424 0.3486-0.4946 0.5218-1.1327 0.5218-1.917zm4.8711-2.5455 1.0859-0.4207v1.1973l-1.0859 0.4207v5.1231h-1.4298v-4.5814l-1.0293 0.3932v-1.1971l1.0293-0.3909v-5.529h1.4298zm7.1736 6.3204c-0.0467-0.2376-0.0839-0.4454-0.1111-0.6259-0.0272-0.1831-0.0422-0.3637-0.047-0.5491-0.2674 0.3784-0.6135 0.6925-1.0415 0.9473-0.4255 0.2523-0.8881 0.3785-1.3805 0.381-0.8163-0.002-1.4371-0.2103-1.8652-0.6284-0.4277-0.4179-0.6406-0.9944-0.6406-1.7292 0-0.7469 0.3019-1.3331 0.9079-1.7563 0.6061-0.4229 1.4298-0.6333 2.4687-0.6333h1.5512v-0.7767c0-0.4575-0.1412-0.8212-0.4207-1.0907-0.2795-0.2673-0.6778-0.4008-1.1897-0.4008-0.4626 0-0.8388 0.1136-1.1231 0.3463-0.2846 0.2325-0.428 0.5094-0.428 0.8334l-1.3533 0.0151-0.0147-0.0446c-0.0346-0.5689 0.2324-1.091 0.7991-1.5635 0.5689-0.4748 1.3011-0.7124 2.2016-0.7124 0.8881 0 1.603 0.2276 2.1447 0.6778 0.5417 0.4527 0.8113 1.1032 0.8113 1.9542v3.7752c0 0.2817 0.015 0.5516 0.0422 0.8112 0.0295 0.2622 0.0839 0.5171 0.1608 0.7694zm-2.3697-1.044c0.517 0 0.9844-0.1336 1.4-0.3983 0.4158-0.2648 0.6854-0.5715 0.8116-0.9128v-1.2764h-1.603c-0.5741 0-1.0341 0.146-1.3805 0.4354-0.3439 0.2894-0.5171 0.6307-0.5171 1.0216 0 0.3489 0.1089 0.6233 0.3266 0.8263 0.2154 0.2027 0.5369 0.3042 0.9624 0.3042z" style="fill-rule:evenodd;fill:#1b1918"/>
    <g id="Layer1001">
      <path id="path8" d="m309.3319 305.387c0.2007 0.0555 0.3345 0.3518 0.5352 0.5926 0.5353 0.926 1.1375 1.5186 1.7397 2.2594 0.0669 0.1481 0.1338 0.1666 0.2676 0.2963 0.3346 0.3889 1.2044 1.3334 1.7397 1.7408l0.6021 0.5186c0.1339 0.1111 0.1339 0.1666 0.2677 0.2592 1.5389 1.2038 1.5389 1.1853 3.0778 2.1853 0.4683 0.3519 1.5389 0.926 2.208 1.2408 0.2676 0.1482 0.4683 0.2408 0.736 0.3889 0.2676 0.1482 0.5353 0.2223 0.8029 0.3519 0.2676 0.0926 0.5353 0.2222 0.8029 0.3519 0.4684 0.2037 1.2713 0.4259 1.7396 0.5926 1.0037 0.3519 2.5426 0.7778 3.6131 1l1.9404 0.3334c1.0036 0.1667 3.6131 0.2222 4.6167 0.2222 1.472 0 2.944-0.0926 4.2822-0.2222l1.9403-0.3148c0.9368-0.2038 2.6095-0.6482 3.4793-0.9816 0.6022-0.2222 1.2044-0.3518 1.7396-0.5926 0.4684-0.2222 1.8066-0.7593 2.2749-1.0186 0.3346-0.1852 0.4684-0.3704 0.803-0.3704-0.1339 0.5186-3.68 2.6298-4.2822 2.9632-2.944 1.5556-5.4197 2.4445-8.6982 3.0001-1.6058 0.2593-0.8029 0.2222-2.5425 0.3148-0.736 0.0371-0.8029 0.0556-1.6059 0.0556-2.6094 0-3.8138-0.1296-6.2225-0.6852-0.6022-0.1297-1.2044-0.3519-1.8065-0.5371-1.0037-0.3519-2.2749-0.8704-3.2786-1.4075-0.2676-0.1666-0.5352-0.2407-0.736-0.4074-2.2749-1.5001-2.6763-1.6482-4.6167-3.5557l-0.8698-0.8704c-1.8066-1.9816-2.6764-3.6854-3.8807-6.0374l-0.5353-1.2037c-0.0669-0.1482-0.0669-0.3519-0.1338-0.463zm14.3185-15.0008c-0.4015 0-0.6691-0.6852-0.6691-1 0-1.0001 0.3346-1.2408 1.472-2.0187 0.3346-0.1852 0.736-0.4629 1.0036-0.5926 0.2008-0.0926 0.3346-0.1481 0.4684-0.2778 0.9367-0.6667 0.5353-0.0741 1.472-0.7963 0.2007-0.1296 0.3346-0.2408 0.4684-0.3148 0.2676-0.0926 0.4014-0.0371 0.6022-0.1667 0.3345-0.1667 0.669-0.426 1.0036-0.5556 0.736-0.2778 1.6058-0.463 2.4087-0.6852 0.4684-0.1482 2.0742-0.4815 2.6095-0.4815 0.5352 0 1.2712-0.3519 2.6763-0.3889 0.2677-0.0186 0.5353 0 0.8029 0 0.3346 0 0.4015-0.0556 0.6691-0.0556 0.8698-0.0185 2.1411 0.0556 2.944 0.2222 1.5389 0.2963 1.1375 0.3889 1.6727 0.5556 1.0706 0.3149 1.2713 1.1853 1.6059 1.5001 0.2676 0.1852 0.2007 0.1667 0.3345 0.4259 0.2007 0.2408 0.2007 0.1667 0.2676 0.5001 0.1339 0.5926 0.2008 1.5186 0.1339 2.0927-0.1339 1.1852-0.067 1.2593-0.6691 2.4445-0.2677 0.5556-0.5353 0.8705-0.8699 1.352-0.3345 0.4629-0.8029 0.7593-1.2712 1.0926-0.6691 0.4815-0.2677 0.2222-0.9367 0.5926-0.2008 0.1111-0.2677 0.1852-0.5353 0.2408-1.1375 0.2407-0.8029 0.2222-1.8066 0.5556-0.9367 0.3333-1.0036 0.3333-1.9403 0.3704-0.3346 0.0185-0.4684 0.1666-0.6022 0.1666-0.2676 0-0.4015-0.1111-0.6691-0.1111-0.2676 0-0.6022 0.2222-0.8698 0.2222-0.2676 0-0.2007-0.0555-0.4684-0.074-0.2007-0.0186-0.2007 0.074-0.4683 0.074l-2.2749-0.0555c-1.2713-0.0371-1.0037-0.2778-1.8735 1.0371-0.0669 0.1481-0.2007 0.2778-0.2676 0.4259-0.1339 0.1482-0.4015 0.2223-0.4015 0.4075-0.0669 0.3333-0.1338 0.6667-0.3345 0.9259-0.2677 0.3334-0.3346 0.3334-0.4684 0.7964-0.1338 0.537-0.4684 0.8148-0.6022 1.3334-0.0669 0.2222-0.0669 0.3148-0.2007 0.5-0.0669 0.1667-0.0669 0.2778-0.2007 0.4259-0.2008 0.3519-0.2008 0.5371-0.3346 0.889-0.4683 0.9074 0.2008 2.0371-1.2712 2.0371-0.4015 0-0.6022-0.3519-0.736-0.6297-0.2677-0.4074-0.4684-0.7222-0.4684-1.2037 0-0.8519 1.0036-2.4631 1.4051-3.2594 0.2676-0.4815 0.3345-0.5556 0.8029-0.7964 0-0.9815 0.4014-1.6297 0.736-2.4075 0.3345-0.6111 0.2676-0.8519 0.8029-1.4075 0.0669-0.1111 0.1338-0.1852 0.2007-0.3148 0.0669-0.1852 0-0.2593 0.1338-0.426 0.1339-0.2222 0.2677-0.2963 0.4015-0.6111 0.0669-0.1482 0.0669-0.2593 0.1338-0.426 0.2007-0.4074 0.6691-0.9815 0.9367-1.7408 0.2008-0.5556 1.0706-1.8519 1.1375-2.0742 0.3345-0.6852 0.1338-2.1482 1.2044-2.1482 0.4014 0 0.736 0.5741 0.8698 0.926 0.1338 0.4259 0.4683 0.963 0.4683 1.463 0 0.3704-0.5352 0.8334-0.6691 1.0926-0.4014 0.5556-0.669 1.1297-1.0036 1.7223-0.0669 0.2408-0.1338 0.4445-0.2007 0.6482-0.4015 0.7408-1.4051 1.5371 0.2676 1.5371 0.8698 0 1.9404 0.0186 2.8102-0.1851 0.4684-0.1112 1.0036-0.0926 1.4051-0.2778 0.4014-0.1852 0.6691-0.1297 1.2713-0.389 0.2676-0.1111 0.4683-0.074 0.736-0.1481 0.2007-0.0556 0.3345-0.2037 0.5352-0.3148 1.0037-0.5186 1.2044-0.4445 2.0742-1.3334 0.2676-0.2963 0.6022-0.5556 0.736-0.963 0.6691-1.5927 0.6022 0.0185 0.6022-2.6113 0-0.7037-0.0669-1.1482-0.4015-1.5371-0.8698-1.0371-0.5352-0.6852-1.2712-1.0741-0.4015-0.1852-0.8029-0.2408-1.1375-0.3889-1.0705-0.4075-3.0778-0.2038-4.1483-0.1112-0.4684 0.0371-0.8699 0-1.2713 0.0556-1.0706 0.1111-2.208 0.2222-3.2786 0.5185-0.4683 0.1297-1.0036 0.3334-1.5389 0.426-0.8029 0.1296-1.5389 0.5371-2.2749 0.9074-0.3345 0.1667-0.5352 0.2593-0.8029 0.463-0.4683 0.3889-0.9367 0.8519-1.4051 1.1668-0.1338 0.0926-0.2676 0.1296-0.4014 0.2407-0.0669 0.0741-0.1338 0.3148-0.2008 0.426-0.2007 0.3333-0.4014 0.3889-0.4683 0.8333-0.0669 0.3334-0.2007 0.7408-0.6022 0.7408zm-4.5498-16.2786c0.2676-0.3704 2.0073-1.5556 2.4756-1.8519l1.8735-1.0556c0.3345-0.1852 0.6022-0.2964 0.9367-0.5001 1.3382-0.7963 5.0182-2.0927 6.3564-2.3149 3.5461-0.5741 2.8101-0.6111 6.557-0.6111 1.4051 0 2.8102 0.1296 4.0815 0.4259 0.8029 0.1667 1.0705 0.2222 1.8065 0.463l0.8698 0.2407c0.736 0.1852 0.8699 0.3149 1.2713 0.4815 0.4015 0.1482 2.4087 1.0557 2.7433 1.2594 0.8029 0.463 2.0073 1.2408 2.7433 1.7964 0.2007 0.1666 0.4014 0.3333 0.6021 0.5 0.2008 0.1852 0.4684 0.3519 0.6691 0.537 0.2008 0.2223 0.3346 0.3334 0.5353 0.5371l0.8698 0.8704c0.4015 0.4815 0.8029 0.8704 1.3382 1.5186 0.1338 0.2408 0.2676 0.426 0.4684 0.6667 0.3345 0.463 0.6021 0.8704 0.9367 1.3519 0.2676 0.4815 0.5353 0.9445 0.8029 1.4446 0.6022 1 0.8029 1.8334 1.2713 2.7223 0.0669 0.1852 0.1338 0.2593 0.0669 0.4074-0.2008-0.0555-0.1338-0.074-0.2677-0.2963-0.2676-0.4815-1.3381-1.9075-1.6727-2.2964-0.3345-0.4074-0.8029-0.7963-1.1374-1.1852-0.1339-0.2223-0.3346-0.4075-0.5353-0.5926-0.4015-0.2964-0.5353-0.5186-0.9367-0.8149l-0.9368-0.7963c-0.6021-0.5001-1.2712-1.0742-2.0072-1.4446-1.2713-0.7222-1.6728-1.2408-3.68-2.0927-1.472-0.6296-2.4757-1.1482-4.1484-1.5556l-0.8698-0.2963c-3.4793-1.0186-6.6909-1.1297-10.3709-1.0186l-2.1411 0.1852c-2.0742 0.2963-3.6131 0.6297-5.6203 1.2779-1.2713 0.4259-2.944 1.0371-4.0815 1.7038-0.2676 0.1111-0.6022 0.3333-0.8698 0.3333zm-13.4487 19.9455c0 3.5927 0.4683 6.0743 1.5389 9.1671 0.4684 1.5186 1.3382 3.5372 2.1411 4.8336 0.8029 1.2963 1.5389 2.4816 2.4756 3.6483 0.8698 1.0927 1.8735 2.2223 2.944 3.1668l0.6691 0.5927c1.0705 0.8148 1.4051 1.1852 2.6764 2.0741 1.0036 0.6853 1.8734 1.1112 2.7432 1.6483 0.4015 0.2222 0.8029 0.3518 1.2044 0.5741 1.5389 0.7778 3.5462 1.4074 5.2189 1.8149 4.1483 1.0556 9.2334 1 13.3818-0.0185 3.6131-0.8705 6.5571-2.352 9.6349-4.4077 0.4014-0.2963 2.0742-1.5741 2.4087-1.9075 0.0669-0.0926 0.1338-0.1481 0.2007-0.2222 0.1339-0.0926 0.1339-0.0926 0.2677-0.2037 3.3454-3.1113 6.0218-7.2782 7.5607-11.6673 2.6094-7.7226 1.6727-16.0008-2.2749-23.0567-0.736-1.3704-1.5389-2.4816-2.5426-3.7039-0.3345-0.463-1.0705-1.2408-1.2043-1.4075-0.6691-0.8148-2.8102-2.7409-3.68-3.389-0.8029-0.5927-1.2713-0.9075-2.1411-1.4446-0.3345-0.2407-0.736-0.4629-1.0705-0.6667-1.1375-0.6111-2.4088-1.2408-3.6131-1.7223-1.2044-0.463-2.8102-0.963-4.0815-1.2408-4.416-0.963-8.6982-0.9259-13.1141 0.1667-0.4015 0.0926-0.8699 0.2593-1.3382 0.3704-2.208 0.5926-5.8211 2.3334-7.6277 3.6668-0.2007 0.1297-0.3345 0.2223-0.5352 0.3519-1.2713 0.963-1.6728 1.2593-2.8771 2.352l-0.8698 0.8704c-0.2008 0.1667-0.2677 0.2778-0.4015 0.4445-0.5353 0.537-0.736 0.7407-1.2043 1.3704-0.5353 0.6667-1.0706 1.2964-1.539 2.0001-1.0705 1.5927-2.3418 3.8335-3.0109 5.6484-1.2712 3.5928-1.9403 6.0559-1.9403 10.2969z" style="fill-rule:evenodd;fill:#000"/>
      <path id="path10" d="m423.7463 281.2746h3.0778v26.2236h-3.0778v1h11.8429c0-0.6667 0.0669-1-0.2008-1h-3.2116c0-1.5556-0.0669-11.3339 0.0669-12.3895 0.0669-0.5741 0-4.9632 0-6.2226 0-0.3704 0.0669-0.5 0.0669-0.8333l0.1338 0.2592 2.3419 6.0744c0.4683 1.2038 1.0036 2.6298 1.472 3.8521l2.944 7.667c0.1338 0.2408 0.2007 0.4445 0.2676 0.6482 0.0669 0.2407 0.1338 0.4074 0.2676 0.6482 0.1338 0.3704 0.4015 0.9815 0.4684 1.2963h3.8807c0.1338-0.2592 1.2044-3.3335 1.4051-3.8335 1.1375-2.852 2.2749-6.0929 3.3454-8.9819 0.803-2.0186 1.6728-4.4262 2.4757-6.4633l0.4014-1.1297c0-0.0185 0.0669-0.0741 0.0669-0.0741 0-0.0185 0-0.037 0-0.037 0-0.0185 0-0.0185 0-0.0371 0 1.0371 0.067 1.889 0.067 2.9446v16.612h-3.0779v1h11.5084v-1h-3.0109v-26.2236h3.0109v-1h-10.5047c-0.1338 0-0.2008 0.2037-0.2677 0.5185-1.2712 3.0557-2.4087 6.2226-3.613 9.2968-0.4015 1-3.8139 9.7598-3.8139 9.9079-0.1338-0.1111-0.2007-0.3704-0.2676-0.5556-0.0669-0.2037-0.1338-0.3704-0.2676-0.5926l-1.4051-3.7224c-0.3346-0.8334-0.6691-1.6112-1.0037-2.4446l-2.8101-7.4078c-0.2008-0.4444-0.3346-0.8148-0.4684-1.2593-0.1338-0.3148-1.4051-3.5372-1.472-3.7409h-10.6385z" style="fill-rule:evenodd;fill:#000"/>
      <path id="path12" d="m487.7782 281.2746h3.0778v26.2236h-3.0778v1h11.776v-1h-3.3455v-15.0563c0-1.5186 0.0669-2.8705 0.0669-4.3891h0.1338c0 0.2037 1.2713 3.3705 1.472 3.8335 0.1339 0.4074 0.2677 0.8519 0.4684 1.2778 1.6727 4.1669 3.2786 8.556 4.8844 12.7599l0.736 1.9261c0.1338 0.2222 0.2007 0.4629 0.2676 0.6481h3.8807c0.1338-0.5555 6.5571-17.4453 7.2262-19.2972l0.4015-1.1297c0.0669-0.1297 0-0.0556 0.0669-0.1297 0 3.5558 0.0669 6.9448 0.0669 10.5006v9.056h-3.0778v1h11.5083v-1h-3.0109v-26.2236h3.0109v-1H513.672c0 0.1667-0.3346 1.0186-0.4684 1.2223-0.1338 0.4074-0.2676 0.8148-0.4684 1.2408-0.736 1.926-1.6058 4.2224-2.3418 6.167-0.736 1.926-1.7396 4.352-2.4087 6.1855-0.4014 1.2222-1.2044 3.0557-1.6727 4.315-0.0669 0.1111-0.0669 0.2222-0.1338 0.3148-0.0669 0.1482-0.0669 0.1852-0.2008 0.2778 0-0.1111-4.349-11.408-4.7505-12.3525-0.1338-0.4259-0.2676-0.8148-0.4684-1.2408l-1.8734-4.9817c-0.1338-0.3519-0.4015-1.1482-0.6022-1.1482h-10.5047z" style="fill-rule:evenodd;fill:#000"/>
      <path id="path14" d="m382.5972 293.9419v-8.7226c0.3346 0 4.0146 0.0555 4.5498 0.1481 1.2044 0.2038 2.208 0.6853 3.011 1.6483 0.6021 0.7407 0.736 1.5 0.736 2.6483 0 2.0556-1.0037 3.1853-2.4757 3.7594-1.472 0.5556-1.6058 0.2778-2.7433 0.4074-0.8698 0.1111-2.2749-0.074-3.0778 0.1111zm-8.3636-12.8339c0 0.1296 0 0.1666 0.1338 0.1666h2.8102v26.2236h-3.0109v1h11.5083v-1h-3.0778V298.72c1.5389 0.1296 4.0146 0.1296 5.4197 0 1.1374-0.1112 2.4087-0.426 3.3454-0.889 0.6022-0.2963 0.8029-0.4259 1.3382-0.7963 0.4014-0.2963 0.4684-0.463 0.736-0.6667 0.4014-0.2778 0.4684-0.463 0.6691-0.7223 1.2713-1.2778 2.2749-3.7779 2.2749-5.6484 0-2.0742-0.1338-3.7039-1.2044-5.4632-0.3345-0.5371-0.4683-0.6482-0.8029-1.0927-1.0036-1.2963-3.1447-2.3149-4.8174-2.6853-2.0073-0.463-4.5498-0.4815-7.0255-0.4815l-8.2967-0.0556z" style="fill-rule:evenodd;fill:#000"/>
      <path id="path16" d="m472.6568 291.6085c1.0705 0 1.8734 0.1296 2.8101 0.5741 0.3346 0.1852 0.6022 0.3148 0.9368 0.5556 1.472 1 2.7432 3.0187 2.7432 4.7595 0 1.6667-0.1338 2.2594-0.9367 3.6668-0.0669 0.1852-0.1338 0.2963-0.2676 0.4815-0.6691 0.9075-1.5389 1.6112-2.5426 2.0927-1.2712 0.6297-2.7432 0.7593-4.2152 0.3889-2.208-0.5741-4.0146-2.4445-4.5499-4.7409-0.4014-1.6483 0.067-3.5743 1.0037-4.9632 1.0036-1.4816 2.8771-2.815 5.0182-2.815zm-11.1739 6.2781c0 2.5927 0.736 5.0743 2.275 7.0003 0.669 0.8334 1.2043 1.352 2.0741 2.0001 1.5389 1.1853 3.68 2.1668 5.8211 2.1668 1.7397 0 3.4124-0.0555 4.9513-0.9815 0.2676-0.1667 0.4683-0.2408 0.736-0.4445 0.3345-0.2778 0.8698-0.7778 1.2043-1.1297l0.5353-0.6667v2.6668h7.6276v-1h-2.6763v-18.9454c0-0.1297 0-0.1667 0.1338-0.1667h2.5425v-1H479.08v1.4445c0 0.537-0.0669 0.8519-0.0669 1.3889-0.4684-0.5555-0.4014-0.6296-1.1374-1.3519-0.2008-0.2037-0.4684-0.3889-0.736-0.5556-0.1339-0.0926-0.2008-0.1666-0.3346-0.2407-1.5389-0.9816-2.8102-1.1853-4.5498-1.1853-1.8065 0-3.6131 0.5186-4.8844 1.2594-0.5352 0.3148-0.6021 0.3148-1.2712 0.7963-0.5353 0.3889-0.9368 0.7778-1.4051 1.2593-1.6058 1.6112-3.2117 4.4817-3.2117 7.6856z" style="fill-rule:evenodd;fill:#000"/>
      <path id="path18" d="m408.8925 304.3314c-2.7433 0-4.6837-1.389-5.7542-3.5373-1.0036-1.926-0.8029-3.7779 0.0669-5.6669 0.0669-0.0926 0.0669-0.1482 0.1338-0.2593 1.0037-1.7964 3.1447-3.2594 5.2189-3.2594 1.4051 0 2.2749 0.2222 3.4124 0.8704 0.4683 0.2408 1.0036 0.6852 1.3382 1.0371 2.8771 2.852 2.1411 7.4448-0.8029 9.5931-0.4015 0.2407-0.4684 0.2592-0.736 0.4444-0.8029 0.463-1.8066 0.7779-2.8771 0.7779zm-11.4415-6.7782c0 2.0557 0.1339 3.3891 1.0706 5.2596 0.4683 0.9445 0.8029 1.5186 1.4051 2.3149 1.0705 1.2593 2.0741 2.0927 3.5461 2.815 2.1411 1.0741 3.1448 1.1111 5.4197 1.1111 1.2712 0 2.8102-0.4815 3.68-0.9815 1.8734-1.1482 2.0741-1.9446 2.4756-2.1853v2.6112h7.5607v-1h-2.6094v-19.1121h2.6094v-1h-7.4269c-0.2676 0-0.1338 0.7963-0.1338 1.3334 0 0.5 0 1 0 1.5-0.2007-0.1111-0.4015-0.4444-0.5353-0.6481-0.4683-0.5927-1.3382-1.2779-2.0072-1.6668-1.5389-0.8889-2.6095-1.0186-4.5499-1.0186-1.6727 0-3.0778 0.4815-4.2152 1.0556-0.6022 0.2964-1.0706 0.5741-1.6058 0.9816-0.5353 0.3889-1.0037 0.7778-1.472 1.2223l-0.6022 0.6852c-0.6691 0.8519-1.0037 1.3889-1.5389 2.426-0.5353 1.0186-1.0706 2.7779-1.0706 4.2965z" style="fill-rule:evenodd;fill:#000"/>
      <path id="path20" d="m525.7825 288.3861h2.7433v19.1121h-2.7433v1h10.304v-1h-2.6764v-20.1121h-7.6276z" style="fill-rule:evenodd;fill:#000"/>
      <path id="path22" d="m527.5221 281.3302v0.7778c0 1.4075 1.5389 3.0002 2.944 3.0002 1.2713 0 2.0073 0.074 3.0778-1.0742 1.2713-1.3704 1.1375-3.5927-0.1338-4.8891-0.3345-0.3148-0.6022-0.5371-1.0705-0.7408-0.2677-0.1481-1.0037-0.2963-1.472-0.2963-1.4051 0-2.4087 0.8519-3.0109 1.889-0.2007 0.3519-0.3346 0.7963-0.3346 1.3334z" style="fill-rule:evenodd;fill:#000"/>
    </g>
  </g>
</svg>
